<svg width="640" height="480" viewBox="0 0 640 480" xmlns="http://www.w3.org/2000/svg" role="img" aria-label="AI interviewer avatar">
  <defs>
    <linearGradient id="bg" x1="0" y1="0" x2="1" y2="1">
      <stop offset="0%" stop-color="#0f172a"/>
      <stop offset="100%" stop-color="#1d4ed8"/>
    </linearGradient>
    <linearGradient id="shirt" x1="0" y1="0" x2="0" y2="1">
      <stop offset="0%" stop-color="#1f2937"/>
      <stop offset="100%" stop-color="#111827"/>
    </linearGradient>
  </defs>

  <rect width="640" height="480" rx="22" fill="url(#bg)"/>

  <circle cx="320" cy="180" r="92" fill="#f2d0b0"/>
  <path d="M230 175c8-72 56-114 92-114s84 42 92 114c-18-15-42-24-92-24s-74 9-92 24z" fill="#0b1220"/>

  <ellipse cx="286" cy="184" rx="10" ry="12" fill="#0b1220"/>
  <ellipse cx="354" cy="184" rx="10" ry="12" fill="#0b1220"/>
  <path d="M286 234c12 12 56 12 68 0" stroke="#9a3412" stroke-width="6" fill="none" stroke-linecap="round"/>

  <rect x="206" y="252" width="228" height="190" rx="40" fill="url(#shirt)"/>
  <path d="M285 252h70l-35 44z" fill="#e5e7eb"/>

  <rect x="26" y="26" width="150" height="42" rx="21" fill="#0b1220" opacity="0.62"/>
  <text x="101" y="53" text-anchor="middle" font-family="Segoe UI, Arial, sans-serif" font-size="21" fill="#93c5fd">AI INTERVIEWER</text>

  <circle cx="590" cy="50" r="10" fill="#22c55e"/>
</svg>
