<svg xmlns="http://www.w3.org/2000/svg" width="480" height="480" viewBox="0 0 480 480" role="img" aria-label="Home robot mascot">
  <defs>
    <linearGradient id="bg" x1="0" y1="0" x2="1" y2="1">
      <stop offset="0%" stop-color="#e0f2fe"/>
      <stop offset="100%" stop-color="#bfdbfe"/>
    </linearGradient>
    <linearGradient id="body" x1="0" y1="0" x2="0" y2="1">
      <stop offset="0%" stop-color="#1e3a8a"/>
      <stop offset="100%" stop-color="#0f172a"/>
    </linearGradient>
  </defs>

  <rect width="480" height="480" rx="34" fill="url(#bg)"/>

  <rect x="132" y="120" width="216" height="180" rx="28" fill="url(#body)"/>
  <rect x="154" y="144" width="172" height="96" rx="14" fill="#dbeafe"/>

  <circle cx="205" cy="192" r="18" fill="#1d4ed8"/>
  <circle cx="275" cy="192" r="18" fill="#1d4ed8"/>
  <circle cx="205" cy="192" r="6" fill="#fff"/>
  <circle cx="275" cy="192" r="6" fill="#fff"/>

  <rect x="210" y="247" width="60" height="10" rx="5" fill="#38bdf8"/>

  <rect x="170" y="300" width="140" height="95" rx="20" fill="url(#body)"/>
  <rect x="152" y="318" width="18" height="65" rx="9" fill="#1e3a8a"/>
  <rect x="310" y="318" width="18" height="65" rx="9" fill="#1e3a8a"/>

  <rect x="228" y="86" width="24" height="30" rx="10" fill="#1e3a8a"/>
  <circle cx="240" cy="74" r="14" fill="#0ea5e9"/>

  <text x="240" y="438" text-anchor="middle" font-family="Segoe UI, Arial, sans-serif" font-size="30" font-weight="700" fill="#0f172a">AI ROBOT</text>
</svg>
